<svg xmlns="http://www.w3.org/2000/svg" viewBox="106 145 300 300" width="300" height="300" role="img" aria-label="Beacon candlesticks app">
  <defs>
    <radialGradient id="g6a" cx="50%" cy="50%" r="50%">
      <stop offset="0" stop-color="#ffffff"/>
      <stop offset=".55" stop-color="#90caf9"/>
      <stop offset="1" stop-color="#90caf9" stop-opacity="0"/>
    </radialGradient>
  </defs>
  <path d="M236 168 Q256 142 276 168 Z" fill="#0d2440"/>
  <rect x="242" y="168" width="28" height="30" rx="2" fill="#0d2440"/>
  <circle cx="256" cy="183" r="15" fill="url(#g6a)"/>
  <circle cx="256" cy="183" r="7" fill="#ffffff"/>
  <rect x="222" y="198" width="68" height="13" rx="3" fill="#0d2440"/>
  <g stroke-linecap="round">
    <g stroke="#2196f3">
      <line x1="240" y1="232" x2="240" y2="296" stroke-width="3"/>
      <rect x="231" y="248" width="18" height="34" rx="2" fill="#2196f3" stroke="none"/>
      <line x1="272" y1="240" x2="272" y2="300" stroke-width="3"/>
      <rect x="263" y="256" width="18" height="32" rx="2" fill="#2196f3" stroke="none"/>
      <line x1="256" y1="330" x2="256" y2="402" stroke-width="3"/>
      <rect x="247" y="348" width="18" height="40" rx="2" fill="#2196f3" stroke="none"/>
    </g>
    <g stroke="#e53935">
      <line x1="256" y1="224" x2="256" y2="292" stroke-width="3"/>
      <rect x="247" y="240" width="18" height="36" rx="2" fill="#e53935" stroke="none"/>
      <line x1="240" y1="320" x2="240" y2="392" stroke-width="3"/>
      <rect x="231" y="336" width="18" height="40" rx="2" fill="#e53935" stroke="none"/>
      <line x1="272" y1="326" x2="272" y2="398" stroke-width="3"/>
      <rect x="263" y="344" width="18" height="38" rx="2" fill="#e53935" stroke="none"/>
    </g>
  </g>
  <rect x="206" y="404" width="100" height="15" rx="3" fill="#0d2440"/>
  <rect x="192" y="419" width="128" height="15" rx="4" fill="#0d2440"/>
</svg>
